<svg width="482" height="154" viewBox="0 0 482 154" fill="none" xmlns="http://www.w3.org/2000/svg">
<g clip-path="url(#clip0_514_3906)">
<path d="M235.453 96.4C236.456 96.3289 237.459 96.5365 238.352 97C238.954 97.2977 239.471 97.7453 239.851 98.3C240.113 98.7015 240.315 99.1396 240.45 99.6001C240.515 99.8278 240.548 100.063 240.55 100.3V103.2H214.367V63.9C214.368 63.6633 214.402 63.4278 214.466 63.2C214.546 62.769 214.716 62.3599 214.966 62C215.238 61.5146 215.658 61.1291 216.165 60.9C216.844 60.5481 217.601 60.376 218.364 60.4H221.962V96.4H235.453Z" fill="white"/>
<path d="M267.134 62.5001C267.403 61.8474 267.861 61.2897 268.448 60.898C269.035 60.5062 269.726 60.2981 270.432 60.3001H274.229V97.7001C274.223 98.0024 274.189 98.3036 274.129 98.6001C274.093 99.2607 273.923 99.9071 273.63 100.5C273.349 101.171 272.942 101.783 272.43 102.3C271.79 102.844 270.971 103.129 270.132 103.1H266.634V64.9001C266.624 64.6297 266.657 64.3595 266.734 64.1001C266.765 63.8257 266.832 63.5566 266.934 63.3001C266.834 63.2001 266.934 62.8001 267.134 62.5001Z" fill="white"/>
<path d="M298.814 60.8001H303.111L315.803 94.6001L326.497 65.7001C326.801 64.6533 327.349 63.6936 328.096 62.9001C328.646 62.3033 329.287 61.7971 329.995 61.4001C330.727 60.9917 331.555 60.7847 332.393 60.8001H336.291L320.5 103.2H311.106L296.915 65.0001C296.71 64.3891 296.642 63.7405 296.715 63.1001C296.811 62.6259 297.016 62.1807 297.315 61.8001C297.589 61.5061 297.89 61.2382 298.214 61.0001C298.403 60.9032 298.605 60.8357 298.814 60.8001Z" fill="white"/>
<path d="M359.776 61.6C360.201 61.0696 360.805 60.7137 361.475 60.6C362.075 60.5 362.374 60.4 362.474 60.4H384.261V63.8C384.308 64.5172 384.095 65.2273 383.661 65.8C383.328 66.2458 382.878 66.5916 382.362 66.8C381.956 67.0101 381.516 67.1456 381.063 67.2C380.858 67.1906 380.654 67.2247 380.463 67.3H366.272V79.2H377.565V82.4C377.589 83.0142 377.487 83.6268 377.265 84.2C377.082 84.6208 376.809 84.9964 376.466 85.3C376.159 85.5945 375.78 85.8017 375.366 85.9C374.976 86.0151 374.574 86.0823 374.167 86.1H366.272V96.4H380.163C380.433 96.4045 380.701 96.438 380.963 96.5C381.557 96.6206 382.113 96.8838 382.583 97.2671C383.053 97.6503 383.423 98.142 383.661 98.7C384.112 99.6331 384.318 100.665 384.261 101.7L384.361 103.1H358.777V64.9C358.631 64.3109 358.648 63.6934 358.823 63.1127C358.999 62.5319 359.328 62.0094 359.776 61.6Z" fill="white"/>
<path d="M425.435 96.4C426.438 96.3289 427.441 96.5365 428.333 97C428.936 97.2977 429.452 97.7453 429.833 98.3C430.095 98.7015 430.297 99.1396 430.432 99.6001C430.497 99.8278 430.53 100.063 430.532 100.3V103.2H404.348V63.9C404.35 63.6633 404.384 63.4278 404.448 63.2C404.528 62.769 404.698 62.3599 404.948 62C405.22 61.5146 405.64 61.1291 406.147 60.9C406.825 60.5481 407.582 60.376 408.346 60.4H411.944V96.4H425.435Z" fill="white"/>
<path d="M477.203 60.8H482L464.811 84.1001V97.9C464.893 99.2407 464.464 100.563 463.611 101.6C463.223 101.988 462.786 102.324 462.312 102.6C461.89 102.794 461.456 102.96 461.013 103.1C460.524 103.229 460.02 103.296 459.514 103.3H457.315V84.1001L440.126 60.8H444.923C446.005 60.8164 447.067 61.0907 448.021 61.6001C448.963 62.083 449.836 62.6882 450.62 63.4001C451.525 64.1943 452.36 65.0641 453.118 66.0001L461.313 77.1001L469.408 65.9001C470.101 64.9715 470.87 64.1018 471.706 63.3C472.482 62.6539 473.319 62.0846 474.205 61.6001C475.094 61.0224 476.144 60.7422 477.203 60.8Z" fill="white"/>
<path d="M76.9521 154C119.452 154 153.904 119.526 153.904 77C153.904 34.4741 119.452 0 76.9521 0C34.4526 0 0 34.4741 0 77C0 119.526 34.4526 154 76.9521 154Z" fill="url(#paint0_linear_514_3906)"/>
<path d="M80.7497 62.7999L80.5498 62.5999C80.1088 62.1401 79.6416 61.706 79.1507 61.2999C78.651 60.8999 78.2512 60.4999 77.7515 60.0999C77.6377 59.9764 77.5023 59.8747 77.3519 59.7999C62.5611 47.3999 48.9695 42.5999 38.576 43.2999H38.476C33.5272 43.5182 28.8017 45.4237 25.0844 48.6999C18.0887 55.1999 16.3898 66.9999 22.5859 81.2999C22.5859 81.3999 22.6858 81.5 22.7857 81.5999C25.7839 88.3999 30.6809 95.7999 37.5766 103.4C40.9384 106.833 44.5823 109.977 48.4698 112.8C50.1688 114 51.8677 115.2 53.6665 116.3C52.3081 113.649 51.4606 110.765 51.1681 107.8C47.572 105.47 44.1638 102.862 40.9745 99.9999C28.7821 88.4999 13.6915 66.5999 25.9838 50.6999C29.2912 47.9279 33.3765 46.2509 37.6765 45.8999C50.4685 44.6999 64.4598 54.3999 73.754 63.1999C73.854 63.1999 73.854 63.1999 73.954 63.2999C74.5357 63.7821 75.0711 64.3178 75.5529 64.8999C76.0106 65.3431 76.4444 65.8104 76.8522 66.2999C87.4456 78.0999 99.1382 98.8999 88.7447 112.3C85.9177 114.638 82.488 116.128 78.8509 116.6C77.2617 116.816 75.6556 116.883 74.0539 116.8C69.2614 116.331 64.591 115.011 60.2624 112.9C59.1631 112.4 58.0639 111.9 56.9645 111.3C57.2644 112.1 57.764 112.9 58.1637 113.7C58.4929 114.344 58.8954 114.948 59.3631 115.5C60.5811 117.201 62.1064 118.66 63.8603 119.8C67.4959 122.119 71.6521 123.494 75.9527 123.8H76.1525C76.7522 123.8 77.3518 123.9 77.9515 123.9C78.651 123.9 79.3506 123.8 80.1501 123.8C85.3598 123.255 90.2776 121.127 94.2413 117.7C95.2961 116.456 96.2329 115.117 97.0396 113.7C97.4791 112.92 97.8793 112.119 98.2388 111.3C105.434 94.4999 92.6423 74.6999 80.7497 62.7999Z" fill="white"/>
<path d="M115.528 43.2C101.137 43.1 87.9452 50.5 77.4517 59.8C76.8521 60.3 76.2524 60.9 75.5529 61.5L73.9539 63.1C74.0538 63.1 74.0538 63.1 74.1537 63.2C74.7355 63.6822 75.2708 64.2178 75.7527 64.8C76.2104 65.2431 76.6441 65.7105 77.0519 66.2C77.6516 65.6 78.1512 65.1 78.6509 64.5C79.2505 63.9 79.8502 63.2 80.5497 62.6C86.0406 57.118 92.3029 52.4689 99.1382 48.8C108.832 43.8 119.525 42.1 128.52 49.3C135.316 56.5 134.016 67.6 130.619 76.1L130.319 76.7C126.393 85.4097 120.79 93.2595 113.829 99.8C109.268 104.276 104.043 108.021 98.3387 110.9C96.7397 111.7 95.1407 112.4 93.5417 113.1C88.9129 114.95 84.0235 116.063 79.0507 116.4C78.551 116.4 78.0513 116.5 77.5516 116.5C77.0789 116.49 76.6091 116.423 76.1525 116.3C52.867 113 63.7601 83 75.253 68.4C74.6534 67.6 73.9539 66.9 73.3543 66.2C73.0154 65.7755 72.648 65.3746 72.2549 65C61.0618 77.2 50.2686 95.7 57.1643 111.1C57.4641 111.9 57.9639 112.7 58.3636 113.5C58.6927 114.144 59.0951 114.748 59.5628 115.3C60.7808 117.001 62.3061 118.46 64.06 119.6C67.6956 121.919 71.8519 123.294 76.1525 123.6H76.3524C76.952 123.6 77.5516 123.7 78.1512 123.7C78.8508 123.7 79.5504 123.6 80.3499 123.6C91.7428 122.9 103.535 116.1 113.229 106.9C122.723 97.8 130.219 86.5 133.017 77C138.314 62 134.216 43.5 115.528 43.2Z" fill="white"/>
</g>
<defs>
<linearGradient id="paint0_linear_514_3906" x1="9.38816" y1="40.04" x2="144.555" y2="113.889" gradientUnits="userSpaceOnUse">
<stop offset="0.017" stop-color="#216fed"/>
<stop offset="1" stop-color="#008579"/>
</linearGradient>
<clipPath id="clip0_514_3906">
<rect width="482" height="154" fill="white"/>
</clipPath>
</defs>
</svg>
