<svg width="34" height="33" viewBox="0 0 34 33" fill="none" xmlns="http://www.w3.org/2000/svg">
<g id="solar:gallery-linear">
<g id="Group">
<path id="Vector" d="M6.19434 16.5004C6.19434 11.405 6.19434 8.85736 7.77677 7.27384C9.36137 5.69141 11.908 5.69141 17.0033 5.69141C22.0987 5.69141 24.6464 5.69141 26.2288 7.27384C27.8123 8.85844 27.8123 11.405 27.8123 16.5004C27.8123 21.5958 27.8123 24.1434 26.2288 25.7259C24.6474 27.3094 22.0987 27.3094 17.0033 27.3094C11.908 27.3094 9.36029 27.3094 7.77677 25.7259C6.19434 24.1445 6.19434 21.5958 6.19434 16.5004Z" stroke="#216fed" stroke-width="1.87079"/>
<path id="Vector_2" d="M21.3249 14.3387C22.5188 14.3387 23.4867 13.3709 23.4867 12.1769C23.4867 10.983 22.5188 10.0151 21.3249 10.0151C20.131 10.0151 19.1631 10.983 19.1631 12.1769C19.1631 13.3709 20.131 14.3387 21.3249 14.3387Z" stroke="#216fed" stroke-width="1.87079"/>
<path id="Vector_3" d="M6.19434 17.0405L8.08807 15.3835C8.56273 14.9685 9.17734 14.7494 9.80748 14.7704C10.4376 14.7915 11.0362 15.0512 11.4821 15.497L16.1191 20.134C16.479 20.4938 16.9542 20.7151 17.4611 20.759C17.9681 20.8029 18.4743 20.6666 18.8906 20.374L19.2138 20.147C19.8143 19.7252 20.5402 19.5196 21.2727 19.5638C22.0052 19.608 22.7011 19.8993 23.2466 20.3902L26.7314 23.5259" stroke="#216fed" stroke-width="1.87079" stroke-linecap="round"/>
</g>
</g>
</svg>
